<svg width="1024" height="1024" viewBox="0 0 1024 1024" fill="none" xmlns="http://www.w3.org/2000/svg">
  <defs>
    <linearGradient id="bg" x1="140" y1="120" x2="884" y2="904" gradientUnits="userSpaceOnUse">
      <stop stop-color="#0F172A"/>
      <stop offset="0.55" stop-color="#111827"/>
      <stop offset="1" stop-color="#1E293B"/>
    </linearGradient>
    <linearGradient id="accent" x1="288" y1="250" x2="746" y2="762" gradientUnits="userSpaceOnUse">
      <stop stop-color="#F59E0B"/>
      <stop offset="1" stop-color="#F97316"/>
    </linearGradient>
    <linearGradient id="steel" x1="312" y1="220" x2="730" y2="760" gradientUnits="userSpaceOnUse">
      <stop stop-color="#F8FAFC"/>
      <stop offset="1" stop-color="#CBD5E1"/>
    </linearGradient>
    <filter id="shadow" x="176" y="176" width="672" height="672" filterUnits="userSpaceOnUse" color-interpolation-filters="sRGB">
      <feDropShadow dx="0" dy="28" stdDeviation="28" flood-color="#020617" flood-opacity="0.35"/>
    </filter>
  </defs>

  <rect width="1024" height="1024" rx="232" fill="url(#bg)"/>
  <rect x="92" y="92" width="840" height="840" rx="188" stroke="white" stroke-opacity="0.08" stroke-width="8"/>

  <g filter="url(#shadow)">
    <path d="M296 248H546C681 248 770 337 770 472C770 607 681 696 546 696H424V776H296V248ZM424 364V580H530C604 580 642 542 642 472C642 402 604 364 530 364H424Z" fill="url(#steel)"/>
    <path d="M456 296H728V404H564V492H698V596H564V776H456V296Z" fill="url(#accent)"/>
    <path d="M738 248L790 300L650 440L598 388L738 248Z" fill="#FFF7ED"/>
    <path d="M332 828H738" stroke="#F59E0B" stroke-width="58" stroke-linecap="round"/>
    <path d="M332 828H590" stroke="#FFF7ED" stroke-width="24" stroke-linecap="round" opacity="0.9"/>
  </g>
</svg>
